<?xml version="1.0" encoding="utf-8"?>
<!-- Generator: Adobe Illustrator 16.0.0, SVG Export Plug-In . SVG Version: 6.00 Build 0)  -->
<!DOCTYPE svg PUBLIC "-//W3C//DTD SVG 1.1//EN" "http://www.w3.org/Graphics/SVG/1.1/DTD/svg11.dtd">
<svg version="1.1" id="Calque_2" xmlns="http://www.w3.org/2000/svg" xmlns:xlink="http://www.w3.org/1999/xlink" x="0px" y="0px"
	 width="60px" height="60px" viewBox="0 0 60 60" enable-background="new 0 0 60 60" xml:space="preserve">
<rect fill="#3c424e" width="60" height="60" rx="2" ry="2"/>
<g>
	<g fill="#21252B">
    <rect x="3" y="10" width="5" height="5"/>
    <rect x="9" y="10" width="5" height="5"/>
		<rect x="15" y="10" width="5" height="5"/>
		<rect x="21" y="10" width="5" height="5"/>
		<rect x="27" y="10" width="5" height="5"/>
		<rect x="33" y="10" width="5" height="5"/>
		<rect x="39" y="10" width="5" height="5"/>
		<rect x="45" y="10" width="5" height="5"/>
		<rect x="3" y="16" width="5" height="5"/>
		<rect x="9" y="16" width="5" height="5"/>
		<rect x="15" y="16" width="5" height="5"/>
		<rect x="21" y="16" width="5" height="5"/>
		<rect x="27" y="16" width="5" height="5"/>
		<rect x="33" y="16" width="5" height="5"/>
		<rect x="39" y="16" width="5" height="5"/>
		<rect x="45" y="16" width="5" height="5"/>
		<rect x="3" y="22" width="5" height="5"/>
		<rect x="9" y="22" width="5" height="5"/>
		<rect x="15" y="22" width="5" height="5"/>
		<rect x="21" y="22" width="5" height="5"/>
		<rect x="27" y="22" width="5" height="5"/>
		<rect x="33" y="22" width="5" height="5"/>
		<rect x="39" y="22" width="5" height="5"/>
		<rect x="45" y="22" width="5" height="5"/>
		<rect x="3" y="28" width="5" height="5"/>
		<rect x="9" y="28" width="5" height="5"/>
		<rect x="15" y="28" width="5" height="5"/>
		<rect x="21" y="28" width="5" height="5"/>
		<rect x="27" y="28" width="5" height="5"/>
		<rect x="33" y="28" width="5" height="5"/>
		<rect x="39" y="28" width="5" height="5"/>
		<rect x="45" y="28" width="5" height="5"/>
		<rect x="3" y="34" width="5" height="5"/>
		<rect x="9" y="34" width="5" height="5"/>
		<rect x="15" y="34" width="5" height="5"/>
		<rect x="21" y="34" width="5" height="5"/>
		<rect x="27" y="34" width="5" height="5"/>
		<rect x="33" y="34" width="5" height="5"/>
		<rect x="39" y="34" width="5" height="5"/>
		<rect x="45" y="34" width="5" height="5"/>
		<rect x="3" y="40" width="5" height="5"/>
		<rect x="9" y="40" width="5" height="5"/>
		<rect x="15" y="40" width="5" height="5"/>
		<rect x="21" y="40" width="5" height="5"/>
		<rect x="27" y="40" width="5" height="5"/>
		<rect x="33" y="40" width="5" height="5"/>
		<rect x="39" y="40" width="5" height="5"/>
		<rect x="45" y="40" width="5" height="5"/>
		<rect x="3" y="46" width="5" height="5"/>
		<rect x="9" y="46" width="5" height="5"/>
		<rect x="15" y="46" width="5" height="5"/>
		<rect x="21" y="46" width="5" height="5"/>
		<rect x="27" y="46" width="5" height="5"/>
		<rect x="33" y="46" width="5" height="5"/>
		<rect x="39" y="46" width="5" height="5"/>
		<rect x="45" y="46" width="5" height="5"/>
		<rect fill="#ed5000" x="3" y="52" width="5" height="5"/>
		<rect fill="#ed5000" x="9" y="52" width="5" height="5"/>
		<rect x="15" y="52" width="5" height="5"/>
		<rect x="21" y="52" width="5" height="5"/>
		<rect x="27" y="52" width="5" height="5"/>
		<rect x="33" y="52" width="5" height="5"/>
		<rect fill="#22ff33" x="39" y="52" width="5" height="5"/>
		<rect fill="#22ff33" x="45" y="52" width="5" height="5"/>
	</g>
	<g fill="#21252B">
		<circle cx="53" cy="12.5" r="2"/>
		<circle cx="53" cy="18.5" r="2"/>
		<circle cx="53" cy="24.5" r="2"/>
		<circle cx="53" cy="30.5" r="2"/>
		<circle cx="53" cy="36.5" r="2"/>
		<circle cx="53" cy="42.5" r="2"/>
		<circle cx="53" cy="48.5" r="2"/>
		<circle cx="53" cy="54.5" r="2"/>
	</g>
	<g fill="#21252B">
		<circle cx="5.5" cy="7" r="2"/>
		<circle cx="11.5" cy="7" r="2"/>
		<circle cx="17.5" cy="7" r="2"/>
		<circle cx="23.5" cy="7" r="2"/>
		<circle cx="29.5" cy="7" r="2"/>
		<circle cx="35.5" cy="7" r="2"/>
		<circle cx="41.5" cy="7" r="2"/>
		<circle cx="47.5" cy="7" r="2"/>
	</g>
</g>
</svg>
